Coordinates
version=1
nRows=7
nColumns=40
inDegrees=yes

Units are S.I. units (second, meters, Newtons, ...)
If the header above contains a line with 'inDegrees', this indicates whether rotational values are in degrees (yes) or radians (no).

endheader
time	pelvis_tilt	pelvis_list	pelvis_rotation	pelvis_tx	pelvis_ty	pelvis_tz	hip_flexion_r	hip_adduction_r	hip_rotation_r	knee_angle_r	knee_angle_r_beta	ankle_angle_r	subtalar_angle_r	mtp_angle_r	hip_flexion_l	hip_adduction_l	hip_rotation_l	knee_angle_l	knee_angle_l_beta	ankle_angle_l	subtalar_angle_l	mtp_angle_l	lumbar_extension	lumbar_bending	lumbar_rotation	arm_flex_r	arm_add_r	arm_rot_r	elbow_flex_r	pro_sup_r	wrist_flex_r	wrist_dev_r	arm_flex_l	arm_add_l	arm_rot_l	elbow_flex_l	pro_sup_l	wrist_flex_l	wrist_dev_l
      3.94500000	    -45.71767840	     -3.16257864	      8.08579961	      0.10596295	      0.61781637	     -1.17199761	    104.06506906	    -47.62404294	     -5.40569972	     80.51763269	      1.40529780	     18.28058408	     -3.76165224	      0.00000000	    107.11247864	    -31.08069947	     -6.27489227	     74.06702771	      1.29271350	     12.10173554	     10.76320658	      0.00000000	      0.00000000	      0.00000000	      0.00000000	     44.64205889	    -15.09425421	     44.64205889	     75.00618760	     44.99999084	      0.00000000	      0.00000000	     44.64205889	    -15.09425421	     44.64205889	     75.00618760	     44.99999084	      0.00000000	      0.00000000
      3.95000000	    -45.68274114	     -3.19385712	      8.03414493	      0.10620797	      0.61624421	     -1.17169384	    104.26053187	    -47.62611218	     -5.26022019	     80.84850541	      1.41107261	     18.46000191	     -3.69271211	      0.00000000	    107.36204993	    -31.20987265	     -6.07183309	     74.37943060	      1.29816596	     12.23712602	     10.81438642	      0.00000000	      0.00000000	      0.00000000	      0.00000000	     44.64924922	    -15.09122783	     44.64924922	     75.00583718	     44.99999206	      0.00000000	      0.00000000	     44.64924922	    -15.09122783	     44.64924922	     75.00583718	     44.99999206	      0.00000000	      0.00000000
      3.95500000	    -45.57392703	     -3.19991097	      8.00554034	      0.10655428	      0.61486663	     -1.17138629	    104.37837899	    -47.65182570	     -5.10675079	     81.17518125	      1.41677418	     18.66685869	     -3.61602768	      0.00000000	    107.49341092	    -31.33209062	     -5.91180920	     74.67501582	      1.30332490	     12.43271977	     10.91942639	      0.00000000	      0.00000000	      0.00000000	      0.00000000	     44.65668069	    -15.08813663	     44.65668069	     75.00548847	     44.99999318	      0.00000000	      0.00000000	     44.65668069	    -15.08813663	     44.65668069	     75.00548847	     44.99999318	      0.00000000	      0.00000000
      3.96000000	    -45.29735089	     -3.17422525	      7.80271346	      0.10728432	      0.61397040	     -1.17065066	    104.20334074	    -47.47266641	     -5.08175049	     81.46175600	      1.42177586	     18.74737233	     -3.66843035	      0.00000000	    107.43051811	    -31.73790566	     -5.76372855	     74.98893049	      1.30880374	     12.79297681	     11.43648580	      0.00000000	      0.00000000	      0.00000000	      0.00000000	     44.66369927	    -15.08525768	     44.66369927	     75.00517370	     44.99999411	      0.00000000	      0.00000000	     44.66369927	    -15.08525768	     44.66369927	     75.00517370	     44.99999411	      0.00000000	      0.00000000
      3.96500000	    -45.67721409	     -3.26134833	      7.96267151	      0.10676576	      0.61136881	     -1.17099805	    105.06095392	    -47.70003346	     -4.68739890	     81.83332587	      1.42826097	     18.84493218	     -3.70994047	      0.00000000	    108.16179256	    -31.45605472	     -5.51380948	     75.28753911	      1.31401544	     12.61634694	     10.85748931	      0.00000000	      0.00000000	      0.00000000	      0.00000000	     44.67198224	    -15.08190086	     44.67198224	     75.00481628	     44.99999508	      0.00000000	      0.00000000	     44.67198224	    -15.08190086	     44.67198224	     75.00481628	     44.99999508	      0.00000000	      0.00000000
      3.97000000	    -45.68494061	     -3.25093698	      7.93407552	      0.10693815	      0.60971841	     -1.17074114	    105.38377949	    -47.70983822	     -4.43630347	     82.16691842	      1.43408326	     18.96456859	     -3.70410263	      0.00000000	    108.41061854	    -31.54415231	     -5.35588873	     75.58652404	      1.31923371	     12.75541851	     10.86252629	      0.00000000	      0.00000000	      0.00000000	      0.00000000	     44.67963783	    -15.07884215	     44.67963783	     75.00450082	     44.99999587	      0.00000000	      0.00000000	     44.67963783	    -15.07884215	     44.67963783	     75.00450082	     44.99999587	      0.00000000	      0.00000000
      3.97500000	    -45.63534575	     -3.27102466	      7.89313557	      0.10721265	      0.60819861	     -1.17047125	    105.56873399	    -47.71837175	     -4.27128038	     82.48865515	      1.43969863	     19.15117968	     -3.62410913	      0.00000000	    108.62712209	    -31.65003593	     -5.16236631	     75.88420752	      1.32442927	     12.88193683	     10.88275459	      0.00000000	      0.00000000	      0.00000000	      0.00000000	     44.68697785	    -15.07595415	     44.68697785	     75.00421304	     44.99999652	      0.00000000	      0.00000000	     44.68697785	    -15.07595415	     44.68697785	     75.00421304	     44.99999652	      0.00000000	      0.00000000
